<?xml version="1.0" standalone="no"?>
<!DOCTYPE svg PUBLIC "-//W3C//DTD SVG 20010904//EN"
 "http://www.w3.org/TR/2001/REC-SVG-20010904/DTD/svg10.dtd">
<svg version="1.0" xmlns="http://www.w3.org/2000/svg"
 width="700.000000pt" height="700.000000pt" viewBox="0 0 700.000000 700.000000"
 preserveAspectRatio="xMidYMid meet">
<metadata>
Created by potrace 1.14, written by Peter Selinger 2001-2017
</metadata>
<g transform="translate(0.000000,700.000000) scale(0.100000,-0.100000)"
fill="#000000" stroke="none">
<path d="M1950 4367 c0 -13 5 -28 12 -35 17 -17 6 -23 -49 -27 -26 -3 -64 -7
-83 -9 -35 -6 -69 -10 -165 -21 -93 -10 -330 -46 -377 -56 -34 -8 -48 -16 -52
-32 -6 -26 5 -41 55 -69 22 -12 39 -25 39 -28 0 -3 -15 -17 -32 -30 -69 -51
-388 -269 -442 -301 -30 -19 -58 -40 -61 -48 -3 -7 8 -43 25 -80 17 -36 32
-88 34 -114 4 -56 9 -50 -152 -214 -60 -62 -112 -122 -115 -133 -3 -11 -4 -95
-4 -188 l2 -168 64 -89 c36 -50 72 -107 80 -127 9 -21 23 -38 31 -39 100 -7
163 -20 273 -55 106 -35 108 -36 149 -92 51 -69 51 -69 111 -115 l49 -37 -39
-1 c-119 -2 -228 -10 -235 -17 -5 -5 -2 -14 6 -21 11 -9 113 -12 410 -12 381
0 446 4 446 21 0 16 -23 23 -77 25 -65 3 -73 9 -36 29 35 18 113 92 137 129
l18 27 1424 0 c783 0 1424 -4 1424 -8 0 -14 94 -114 134 -144 l39 -28 -69 -1
c-295 -3 -385 -12 -361 -35 9 -9 904 -18 972 -9 38 4 55 11 55 21 0 8 -6 14
-12 15 -42 2 -122 10 -125 12 -1 2 22 21 52 44 29 23 68 62 87 87 l33 45 85 1
c273 3 359 10 480 40 41 11 89 21 105 24 97 18 113 24 125 46 12 22 -22 70
-50 70 -25 0 -33 15 -15 30 26 21 38 73 50 212 5 60 4 68 -15 81 -12 8 -23 26
-24 38 -6 47 -48 185 -68 220 -16 29 -55 57 -190 139 -363 219 -476 268 -840
360 -217 55 -290 85 -518 213 -488 273 -920 419 -1350 454 -189 16 -814 8
-965 -12 -29 -4 -64 -8 -212 -21 -64 -5 -81 -3 -161 25 -108 37 -112 37 -112
8z m1480 -51 c19 -3 69 -11 110 -17 81 -12 90 -14 165 -29 28 -6 59 -12 70
-14 57 -11 229 -58 290 -79 156 -54 538 -231 662 -308 32 -20 32 -21 17 -45
-9 -13 -21 -24 -28 -24 -6 0 -71 34 -145 74 -111 62 -283 145 -436 211 -170
73 -565 160 -785 172 -222 12 -606 6 -795 -12 -82 -8 -161 -16 -190 -20 -95
-12 -125 -16 -170 -20 -27 -3 -63 -7 -80 -10 -16 -2 -61 -7 -100 -10 -38 -4
-77 -8 -87 -10 -25 -5 -22 18 5 41 58 49 56 49 197 59 47 3 92 8 100 10 8 2
49 7 90 10 41 4 86 8 100 10 14 2 75 7 135 10 61 4 112 9 114 11 6 6 721 -3
761 -10z m-1545 -104 c-47 -46 -53 -49 -109 -51 -33 -1 -63 -4 -67 -7 -4 -2
-10 0 -13 5 -4 5 12 25 35 45 40 34 83 47 174 54 l30 2 -50 -48z m-185 11 c0
-4 -18 -24 -41 -44 l-41 -35 -143 2 c-84 2 -153 7 -165 14 -28 15 -25 17 35
24 28 4 61 8 75 11 14 2 45 7 70 10 25 3 68 9 95 13 77 12 115 13 115 5z
m1277 -7 c6 -5 26 -128 38 -236 14 -118 16 -137 20 -170 3 -19 7 -54 10 -77 4
-25 2 -43 -4 -43 -14 0 -24 41 -37 150 -10 89 -30 241 -39 295 -2 11 -4 31 -4
44 l-1 24 -177 -7 c-98 -3 -191 -8 -208 -10 -35 -5 -159 -19 -195 -21 -23 -2
-69 -8 -157 -21 -18 -3 -33 -1 -33 4 0 12 114 32 265 47 132 13 155 15 300 21
83 4 151 8 153 9 4 3 65 -4 69 -9z m188 -151 c15 -82 29 -159 31 -170 3 -11 7
-33 9 -50 3 -16 10 -54 15 -84 25 -139 0 -110 -30 35 -24 117 -25 122 -50 259
-11 61 -22 121 -25 134 -5 27 3 47 15 34 4 -4 20 -75 35 -158z m185 151 c191
-13 521 -80 684 -140 133 -49 95 -49 -69 -1 -239 71 -425 106 -630 121 -49 4
-101 8 -115 9 -14 2 -36 4 -50 4 -18 1 -21 4 -12 10 8 4 32 7 55 5 23 -1 85
-5 137 -8z m-1205 -128 c4 -35 8 -74 10 -88 2 -14 7 -50 10 -80 3 -30 8 -70
11 -87 5 -33 -9 -46 -20 -18 -13 36 -42 287 -37 333 3 34 20 -5 26 -60z m-245
39 c0 -9 -73 -183 -80 -190 -31 -33 14 121 53 181 7 10 27 17 27 9z m-234 -24
c-4 -5 -49 -52 -99 -106 -91 -97 -127 -128 -127 -107 0 16 201 220 218 220 8
0 12 -3 8 -7z m1194 -13 c45 -5 -38 -18 -130 -20 -58 -1 -118 -3 -135 -5 -111
-10 -182 -19 -262 -34 -71 -14 -93 -15 -93 -5 0 14 72 32 205 50 17 2 77 7
135 10 58 4 106 7 107 8 2 2 155 -2 173 -4z m735 -25 c216 -39 535 -138 535
-166 0 -14 -12 -11 -86 17 -116 44 -228 77 -293 89 -19 3 -37 8 -41 10 -18 11
-224 41 -350 50 -47 4 -89 11 -95 17 -14 15 219 3 330 -17z m-2166 -22 c0 -9
-250 -202 -286 -221 -13 -7 -29 -12 -35 -10 -6 2 34 37 88 78 55 40 101 76
104 80 9 12 112 80 121 80 5 0 9 -3 8 -7z m2806 -85 c4 -24 9 -47 10 -53 5
-19 7 -50 6 -70 -1 -17 -3 -17 -11 -5 -11 20 -39 168 -32 174 10 11 20 -5 27
-46z m-2455 -61 c0 -2 -21 -45 -46 -96 -61 -122 -64 -148 -26 -244 35 -87 76
-154 217 -357 56 -80 139 -201 185 -269 46 -68 105 -145 130 -171 98 -104 225
-144 365 -116 101 20 141 21 360 11 190 -8 260 -10 620 -20 138 -3 313 -8 390
-10 77 -3 272 -6 433 -7 l292 -2 0 -48 0 -48 -1309 0 -1308 0 -6 123 c-11 243
-95 380 -287 469 -87 40 -123 48 -217 49 -90 0 -129 -9 -218 -51 -87 -42 -147
-94 -197 -171 -34 -53 -42 -56 -93 -35 -22 10 -37 11 -41 5 -8 -13 25 -38 49
-39 25 0 31 -24 18 -73 -17 -61 -20 -84 -22 -149 -1 -32 -5 -60 -8 -62 -13 -8
-201 60 -225 81 -28 24 -71 106 -86 163 -5 19 -12 95 -16 168 -6 132 -6 132
21 163 34 42 24 49 -19 13 -38 -32 -38 -31 -38 -191 l0 -103 -34 0 -34 0 0
143 0 143 126 128 126 128 96 24 c53 14 104 27 112 29 33 9 250 53 291 59 24
3 71 11 104 16 33 5 64 10 69 10 5 0 2 8 -5 17 -23 27 -128 69 -234 93 -134
30 -137 32 -84 63 70 40 257 113 339 132 41 10 89 20 105 24 35 8 105 14 105
8z m196 -65 c212 -89 432 -137 724 -157 148 -10 344 -26 370 -30 18 -2 34 -47
62 -170 32 -141 30 -559 -3 -715 -13 -62 -19 -68 -57 -64 -15 2 -99 6 -187 9
-118 3 -178 1 -228 -10 -108 -23 -149 -25 -209 -11 -105 24 -181 86 -273 222
-22 32 -98 142 -169 244 -159 227 -190 275 -239 370 -51 99 -56 139 -23 220
30 73 73 150 85 150 4 0 71 -26 147 -58z m-561 9 c-22 -20 -444 -134 -478
-129 -28 4 335 110 428 125 17 3 32 7 34 9 2 2 9 4 15 4 6 0 6 -3 1 -9z m3415
-26 c35 -18 35 -18 13 -56 -20 -34 -25 -35 -64 -12 -34 20 -35 25 -13 58 19
29 25 30 64 10z m-453 -50 c22 -5 27 -20 35 -95 l3 -25 -85 3 c-125 4 -144 11
-151 55 -4 26 -2 41 8 49 27 22 123 29 190 13z m626 -34 c56 -22 121 -45 144
-51 32 -8 53 -24 94 -73 76 -89 92 -102 167 -132 94 -38 117 -51 198 -114 39
-31 135 -103 213 -160 78 -57 171 -131 206 -165 56 -55 63 -65 60 -96 -7 -98
-18 -158 -42 -228 -23 -69 -36 -93 -93 -164 -16 -19 -48 -25 -178 -32 -35 -1
-65 1 -68 5 -2 4 -6 66 -8 136 -2 70 -9 141 -15 156 -16 41 -15 43 29 61 22 9
40 22 40 30 0 13 -5 13 -41 1 -58 -21 -63 -20 -87 23 -28 50 -107 128 -161
160 -80 47 -160 69 -251 71 -140 3 -259 -48 -361 -156 -88 -93 -144 -218 -148
-328 -1 -18 -8 -20 -67 -20 -61 -1 -65 1 -59 20 12 41 34 152 44 220 12 86 7
486 -7 539 -6 21 -24 58 -41 82 l-31 43 42 -4 c90 -8 197 -16 301 -21 99 -6
107 -5 107 12 0 10 -33 51 -73 90 l-74 72 24 31 c14 17 27 31 29 31 3 0 51
-18 107 -39z m-3995 -60 c50 -6 113 -14 140 -16 26 -3 56 -7 68 -10 11 -2 45
-7 75 -11 30 -4 63 -11 74 -15 19 -9 -172 -4 -275 6 -25 3 -85 7 -134 9 -86 5
-105 12 -106 41 0 12 32 11 158 -4z m4464 -76 c126 -40 235 -84 338 -138 103
-54 312 -179 307 -183 -2 -3 -44 11 -93 29 -49 19 -197 69 -329 111 -351 113
-324 100 -414 205 -40 47 -32 46 191 -24z m-2092 30 c25 -2 92 -7 150 -10 58
-3 130 -8 160 -10 30 -2 100 -7 155 -10 224 -13 262 -15 299 -21 21 -3 48 -9
60 -13 11 -4 78 -6 148 -4 141 4 134 6 190 -68 38 -48 47 -119 46 -354 0 -208
-17 -375 -42 -424 -29 -55 -23 -54 -318 -46 -403 10 -916 24 -1020 29 -20 0
-39 3 -41 6 -3 3 -1 25 4 50 22 115 31 477 15 620 -7 68 -29 182 -45 238 l-10
33 102 -6 c56 -3 122 -8 147 -10z m-2320 -104 c33 -2 14 -18 -30 -24 -135 -20
-128 -20 -127 0 1 10 5 21 9 24 7 4 65 5 148 0z m4802 -202 c128 -45 246 -88
262 -96 l28 -15 -38 -39 c-41 -42 -53 -45 -103 -28 -42 15 -39 25 7 21 29 -3
42 2 60 21 l23 24 -43 18 c-67 27 -161 56 -166 51 -2 -3 1 -21 8 -41 7 -20 9
-39 5 -43 -4 -4 -9 -2 -12 3 -2 6 -16 32 -31 58 -24 44 -34 52 -92 73 -82 31
-169 73 -153 73 6 1 116 -36 245 -80z m398 -147 c32 -69 70 -166 70 -181 0
-13 -2 -13 -13 -1 -13 14 -97 200 -97 213 0 16 29 -7 40 -31z m-157 -113 c34
-17 92 -49 128 -70 l67 -39 21 -80 c29 -107 31 -130 16 -168 -15 -34 -56 -52
-79 -33 -7 6 -21 29 -31 50 -15 34 -23 41 -59 46 -42 7 -69 22 -62 34 4 6 14
83 18 143 2 30 -4 45 -27 71 -53 58 -68 77 -61 77 3 0 35 -14 69 -31z m-4474
-123 c0 -11 -10 -59 -22 -106 -28 -107 -45 -112 -68 -19 -37 146 -34 157 45
151 40 -3 46 -7 45 -26z m3645 16 c8 -13 -31 -193 -44 -206 -23 -23 -37 14
-66 178 -2 10 -1 23 2 27 7 11 101 12 108 1z m-3799 -22 c5 -8 -34 -38 -92
-69 -19 -10 -23 -9 -23 3 0 8 21 28 47 45 50 33 59 36 68 21z m253 -14 c36
-22 71 -56 58 -56 -16 0 -116 56 -120 67 -8 20 21 15 62 -11z m3397 15 c6 -11
-113 -86 -122 -77 -8 8 16 35 57 62 38 25 56 29 65 15z m249 -23 c50 -34 75
-65 39 -50 -45 18 -103 57 -103 69 0 19 10 16 64 -19z m-3942 -155 c114 -87
89 -96 -114 -42 -34 9 -36 11 -28 37 4 15 13 39 20 55 13 27 14 27 39 10 14
-9 52 -36 83 -60z m418 9 c14 -37 13 -41 -21 -47 -84 -18 -128 -17 -148 2 -20
18 -19 19 56 65 85 52 84 52 113 -20z m3247 -21 c88 -61 73 -85 -37 -58 -8 2
-41 9 -72 16 -32 7 -60 16 -62 20 -3 4 6 31 20 60 l24 53 33 -24 c17 -14 60
-44 94 -67z m388 37 c13 -29 23 -53 22 -54 -3 -4 -52 -12 -110 -20 -38 -5 -52
-3 -67 11 -20 18 -19 19 52 66 40 26 74 48 76 48 2 1 14 -22 27 -51z m-4792
12 c23 -27 67 -98 67 -107 -1 -5 -25 19 -55 51 -48 53 -59 76 -37 76 4 0 15
-9 25 -20z m5452 -86 c0 -26 -4 -29 -30 -29 -26 0 -30 3 -27 25 5 48 57 52 57
4z m-4480 -15 c14 -22 -3 -18 -26 7 -23 25 -23 26 -2 15 12 -6 25 -16 28 -22z
m3635 6 c20 -24 6 -28 -15 -5 -10 11 -13 20 -8 20 6 0 16 -7 23 -15z m-3695
-25 c13 -40 -38 -68 -64 -36 -9 11 -10 20 -1 35 14 28 56 28 65 1z m3644 3
c12 -23 -4 -53 -29 -53 -26 0 -45 36 -29 56 16 19 46 18 58 -3z m-3388 -5 c3
-21 -1 -72 -6 -85 -9 -26 -22 -12 -21 25 1 37 1 37 -44 43 -38 4 -41 6 -20 12
73 19 90 20 91 5z m-546 -15 c-4 -10 -9 -31 -12 -48 -9 -55 -19 -49 -28 18 -7
46 -6 47 20 47 22 0 26 -3 20 -17z m3658 11 c3 -4 -3 -14 -14 -23 l-20 -16 22
-58 c21 -55 21 -76 0 -63 -19 12 -54 138 -44 159 5 9 47 10 56 1z m537 -28 c0
-19 -3 -41 -6 -50 -10 -25 -24 -8 -24 30 0 32 -2 34 -34 34 -19 0 -38 5 -41
10 -4 6 15 10 49 10 l56 0 0 -34z m685 -16 c22 -5 51 -11 65 -13 50 -9 112
-28 107 -33 -3 -3 -34 -7 -69 -9 -128 -7 -263 -17 -280 -20 -14 -3 -11 6 15
46 32 49 32 49 77 44 25 -4 63 -10 85 -15z m-4446 -77 c29 -17 58 -34 65 -37
6 -2 -11 -26 -38 -52 l-49 -48 -22 27 c-12 16 -37 57 -56 93 -29 55 -32 66
-19 74 10 6 23 4 40 -7 14 -10 49 -32 79 -50z m-233 43 c5 -13 -70 -171 -86
-181 -8 -5 -90 53 -90 63 1 14 27 39 85 85 63 49 82 56 91 33z m3647 -17 c0
-14 -21 -57 -44 -96 l-43 -72 -29 17 c-53 32 -59 45 -34 73 45 50 121 110 136
106 10 -2 15 -12 14 -28z m191 -1 c28 -17 71 -36 95 -43 l45 -11 -53 -52 c-29
-29 -59 -52 -66 -52 -14 0 -105 156 -105 179 0 19 31 12 84 -21z m-3773 -50
c6 -157 3 -191 -12 -152 -12 29 -11 184 1 184 6 0 11 -15 11 -32z m3640 30 c0
-2 3 -48 6 -103 4 -82 2 -98 -9 -87 -15 15 -22 192 -7 192 5 0 9 -1 10 -2z
m-3881 -27 c0 -14 -18 -23 -31 -15 -8 4 -7 9 2 15 18 11 29 11 29 0z"/>
<path d="M1994 3580 c-11 -5 -38 -8 -59 -8 -28 0 -44 -6 -56 -21 -32 -39 -6
-70 58 -71 12 0 38 -10 58 -21 39 -23 110 -28 145 -9 12 6 39 13 61 14 49 4
63 17 55 50 -5 20 -23 34 -56 41 -139 31 -176 36 -206 25z m199 -59 c15 -6 27
-13 27 -15 0 -5 -185 1 -264 9 -21 1 -43 9 -50 15 -9 10 18 11 125 7 75 -4
148 -11 162 -16z"/>
<path d="M3357 3493 c-4 -3 -32 -10 -63 -14 -62 -8 -72 -15 -79 -47 -5 -26 10
-38 60 -48 22 -4 52 -16 66 -26 36 -27 77 -29 128 -7 24 10 58 19 76 19 18 0
38 6 44 14 18 22 -3 64 -36 72 -15 4 -46 15 -68 25 -39 18 -115 25 -128 12z
m126 -57 c32 -3 62 -8 67 -11 19 -11 0 -24 -28 -20 -28 5 -158 13 -229 14 -43
1 -59 16 -25 23 20 4 130 1 215 -6z"/>
<path d="M4079 2868 c-2 -10 -2 -45 0 -57 1 -12 47 -20 61 -11 7 5 0 12 -20
18 -17 7 -29 15 -26 20 2 4 1 14 -5 22 -5 8 -9 12 -10 8z"/>
<path d="M4172 2833 c3 -35 5 -37 36 -38 44 -1 52 14 13 21 -41 8 -41 34 0 34
17 0 28 4 24 10 -3 6 -22 10 -41 10 -34 0 -35 -1 -32 -37z"/>
<path d="M4286 2848 c-24 -34 -19 -43 24 -44 22 -1 40 0 40 3 0 12 -32 63 -40
63 -5 0 -16 -10 -24 -22z"/>
<path d="M4374 2846 c-9 -36 3 -48 26 -29 14 12 16 19 8 25 -9 5 -9 8 2 12 8
2 22 7 30 9 8 3 -2 6 -22 6 -32 1 -39 -3 -44 -23z"/>
<path d="M565 2250 c-37 -6 -36 -23 2 -31 50 -10 363 -3 374 8 8 8 7 13 -2 19
-15 9 -329 13 -374 4z"/>
<path d="M2063 2244 c-22 -15 -15 -23 25 -28 36 -4 73 16 53 28 -21 14 -60 14
-78 0z"/>
<path d="M2293 2252 c-24 -3 -30 -16 -14 -27 13 -8 131 -9 138 -1 21 21 -55
38 -124 28z"/>
<path d="M2568 2252 c-31 -4 -39 -31 -10 -33 9 -1 68 -2 129 -3 102 -1 113 1
113 17 0 9 -8 17 -17 18 -68 3 -193 4 -215 1z"/>
<path d="M2953 2252 c-33 -5 -29 -32 5 -33 71 -4 308 -4 320 -1 18 6 14 32 -5
33 -53 3 -301 4 -320 1z"/>
<path d="M3431 2248 c-17 -6 -21 -12 -14 -19 13 -13 97 -19 115 -8 34 21 -55
45 -101 27z"/>
<path d="M3698 2252 c-51 -4 -51 -29 0 -34 52 -5 732 -2 737 3 2 3 0 11 -5 18
-7 12 -70 15 -352 15 -188 1 -360 0 -380 -2z"/>
<path d="M5732 2249 c-24 -9 -30 -28 -9 -30 52 -4 115 -5 134 -1 30 6 30 32 1
33 -82 6 -106 5 -126 -2z"/>
<path d="M6005 2242 c-3 -8 -3 -17 -1 -21 4 -5 337 -7 409 -2 9 0 17 8 17 16
0 18 9 17 -227 19 -153 1 -194 -2 -198 -12z"/>
<path d="M624 2105 c-8 -21 3 -33 28 -30 13 1 31 3 41 4 21 1 23 27 1 35 -28
11 -64 6 -70 -9z"/>
<path d="M825 2102 c-10 -26 7 -32 97 -33 98 -1 113 3 98 31 -8 15 -22 18 -99
18 -71 -1 -91 -4 -96 -16z"/>
<path d="M1153 2104 c-6 -16 15 -37 29 -28 4 3 8 14 8 25 0 23 -28 26 -37 3z"/>
<path d="M1313 2105 c-10 -7 -14 -17 -10 -22 11 -10 1663 -11 1673 0 4 4 2 13
-5 20 -18 18 -1633 20 -1658 2z"/>
<path d="M3144 2105 c-11 -7 -15 -17 -11 -21 8 -8 543 -13 585 -6 28 5 29 28
1 35 -11 3 -141 6 -289 6 -211 0 -272 -3 -286 -14z"/>
<path d="M3890 2105 c-21 -25 20 -32 180 -34 157 -1 197 6 172 31 -19 19 -336
22 -352 3z"/>
<path d="M4434 2105 c-18 -13 -18 -14 4 -22 39 -15 590 -9 604 5 10 10 10 15
-2 22 -8 5 -143 9 -301 9 -228 0 -291 -3 -305 -14z"/>
<path d="M5181 2106 c-9 -10 -8 -16 4 -26 19 -16 41 1 32 24 -8 20 -21 20 -36
2z"/>
<path d="M5355 2103 c-27 -26 -1 -33 133 -33 101 0 124 3 129 15 3 9 2 19 -2
23 -3 4 -60 8 -125 9 -99 2 -122 0 -135 -14z"/>
<path d="M5733 2104 c-7 -20 17 -37 34 -23 15 13 6 39 -13 39 -8 0 -17 -7 -21
-16z"/>
<path d="M5893 2104 c-10 -27 17 -34 130 -34 88 0 109 3 114 15 3 9 3 19 -1
22 -4 4 -58 8 -122 10 -97 2 -116 0 -121 -13z"/>
<path d="M6253 2104 c-11 -30 47 -46 88 -23 30 15 9 35 -41 37 -30 2 -42 -1
-47 -14z"/>
</g>
</svg>
