<svg xmlns="http://www.w3.org/2000/svg" width="1365.333" height="1365.333" version="1.0" viewBox="0 0 1024 1024" fill="#d1cdcd"><path d="M285.1 383.9c-.8 1.5-.5 2.7 1.5 5.6 1.4 2.1 2.4 3.8 2.2 3.9-.2.2-7.9 1-17.2 1.9-9.3 1-25.1 2.9-35 4.2-55.9 7.7-54.5 7.5-56 11.7-1.4 3.9 1.4 7.5 8.5 10.6 3.6 1.7 5.8 3.2 5.6 4.1-.1.8-6.1 5.5-13.2 10.4-35.3 24.4-53.5 36.7-58.8 39.7-8.3 4.7-8.5 5.7-2.6 16.7 4.7 8.9 4.9 9.4 4.9 17.5v8.3L106.4 537c-10.2 10.2-19.2 19.7-20 21.2-1.1 2.1-1.4 7.8-1.4 27v24.3l2.7 5.3c1.5 2.9 5.8 9.2 9.6 14 6.9 8.5 10.6 15 10.7 18.4 0 2 1.6 2.5 11 3.2 9.4.7 21.2 3.3 32 7.1 17.4 6 16.4 5.4 21.9 13.7 5.6 8.3 12.8 15.3 20 19.6l4.6 2.7-20.5.6c-11.3.3-20.6.6-20.6.7-1.1 1.5-1 3.4.2 4.7 1.4 1.3 9.1 1.5 61.8 1.5 63.8 0 64.3 0 63.4-4.6-.3-1.7-1.5-2-11.3-2.4l-11-.5 6.3-3.4c6.3-3.4 19.3-16 21.5-20.8l1-2.3h208.1l208.1.1 2.5 4c3.6 5.9 12.6 14.9 18.9 19l5.4 3.4-31.3.5c-28.2.5-31.4.7-32.4 2.2-.7 1.1-.7 2.1-.1 2.7 1.3 1.2 122.8 2.4 138.5 1.4 11.4-.8 11.5-.8 11.5-3.3s-.1-2.5-11-3l-10.9-.5 7.4-5.1c5.3-3.6 9.3-7.3 13.7-13.1l6.3-8 29.2-.6c31.7-.5 28.6-.1 67.8-8.7 5.2-1.2 10.9-2.4 12.7-2.7 4.1-.7 7.3-3.7 7.3-6.9 0-2.7-4-7.4-6.4-7.4-.8 0-2.7-.5-4.2-1l-2.7-1.1 3.6-3.7c4-4.1 4.3-5.5 6.6-29.7.9-9.4.8-10.1-1.1-11.8-1.1-.9-2.7-1.7-3.4-1.7-1 0-1.3-.7-.9-2.3.6-2.2-5.9-25.1-9.6-33.7-1.7-4-3.1-5.2-13.2-11.4-64.8-40-82.3-48-131.7-60.2-40-9.8-41.9-10.6-84.5-33.9-48-26.2-79.4-40-113.8-49.9-28.6-8.3-56.3-13.5-84.2-15.8-17.4-1.4-82.5-1.8-103.5-.6-11.7.7-53.3 4.3-61 5.3-13.6 1.7-16.6 1.7-20.5 0-7.6-3.3-19.8-7.5-21.6-7.5-1 0-2.3.9-2.8 1.9zm197.5 7.2c37.1 2.4 80.3 10.9 112.8 22.1 16 5.5 39.6 15.6 60.1 25.8 16.1 8 38.3 19.9 40.4 21.6.7.6-4.9 8.4-5.9 8.4-.6 0-7.7-3.9-15.8-8.7-23.4-13.8-56.1-29.1-81.2-38.1-17.8-6.4-40.1-12-64-16.1-22.4-3.9-21.9-3.8-45.5-5.2-18.2-1.1-77.7-.7-89 .5-2.2.3-8 .7-13 1.1-11.7.7-30.6 2.5-32.5 3-1.5.4-21 2.8-32.5 4-3.3.4-7.1.8-8.5 1-1.4.2-5.6.7-9.5 1-3.8.4-9.5 1-12.6 1.4-9.4 1.2-9.7.3-2.3-6.3l6.6-5.9 23.2-2.3c12.7-1.3 29.8-3 38-3.9 8.1-.8 20.1-1.8 26.5-2.1 6.4-.4 16.3-1 22.1-1.4 16.5-1.1 65.1-1.1 82.6.1zm-206.1 16.6-6.8 6.8-7.1.7c-3.9.4-9.3.7-12.1.7h-5l4.1-3.7c9-8.3 9.6-8.6 17.4-9.7 4.1-.6 9.5-1.2 11.9-1.4l4.5-.2-6.9 6.8zm-26.7-1.9c-.1.4-2.9 3.2-6.2 6.2l-5.8 5.5-16.2.3c-17.6.4-30.1-.8-32.4-3.2-1.3-1.3-1-1.5 2.9-2 9.8-1.3 41.7-5.8 46.4-6.6 6.8-1 11.7-1.2 11.3-.2zm186.6 2.4c.8 3.6 2.4 15.4 5.7 42.3 4.7 38 4.5 34.8 2.3 34.3-2.2-.4-2.1-.1-7.9-45.8-2-15.7-3.9-28.9-4.2-29.3-.4-.7-26.9-.2-38.3.8-2.5.2-8.1.7-12.5 1-7.5.6-31.3 3.1-38 4-4.9.7-19.8 2.5-22 2.8-1.2.1-2-.4-2-1.3 0-1.6 2.1-2.1 20.5-4.4 29.7-3.8 58.9-6.1 82.7-6.4 13-.2 13.3-.2 13.7 2zm22.6-1.5c0 .5.7 4.6 1.6 9.3.8 4.7 2.6 14.3 3.9 21.5 1.3 7.1 3.7 20.4 5.4 29.5 3.4 18.1 3.6 20 2.1 20-2.1 0-3.9-8.1-14.1-63-3.4-18.5-3.4-18-.9-18 1.1 0 2 .3 2 .7zm50.2 2.3c28.3 3.6 63.3 11.9 84.6 20 5.9 2.3 8.1 3.5 7.3 4.3-.8.8-6.2-.6-18.8-4.6-35.3-11.3-70.8-17.8-106.2-19.5-11.9-.5-15.5-1-15.9-2.1-.4-1.2 2.1-1.3 16.4-.8 9.3.4 24 1.6 32.6 2.7zM314 427.5c.6 6 1.7 15.7 2.5 21.5 2.8 19.9 2.8 19 1.1 19-2.3 0-2.7-1.3-4.7-15.5-3.6-25.9-4.3-35.6-2.8-36.6.8-.4 1.7-.5 2-.1.4.4 1.2 5.6 1.9 11.7zm-36-6.9c0 .3-2.5 6.4-5.5 13.6-3 7.1-5.5 13.4-5.5 13.9 0 .6-.8.9-1.7.7-2.5-.5-2-3.2 2.7-14.6 2.3-5.3 4.5-10.7 5-12 .8-1.9 5-3.3 5-1.6zm-34 2.4c0 .6-3.9 5.2-8.7 10.1-4.9 5-11.9 12.4-15.8 16.4-5.5 5.7-7.4 7.2-8.9 6.6-1.5-.6.7-3.4 14-17.4 14.1-14.9 19.4-19.2 19.4-15.7zm175.8 3.5c-.2 1.3-3.3 1.6-18.8 2-10.2.2-20.1.7-22 .9-1.9.3-8.9 1-15.5 1.6-10 1-21.9 2.9-34.2 5.7-1.8.4-2.3.1-2.3-1.5s1-2.2 4.8-3c22.8-4.9 43.1-6.9 69-7.1 16.8-.1 19.3.1 19 1.4zm95.7 1.1c24.2 3 58.3 12 80.1 21.1 8.7 3.6 10.5 5 8.4 6.3-.7.4-5.3-.9-10.7-3.1-29.7-12.1-70.5-21.1-101.5-22.6-14.1-.6-16.6-1.2-15.3-3.3.9-1.5 20.1-.7 39 1.6zm-306.2 4.9c.1 1-1.7 2.5-24.9 20-6.5 4.9-12.1 9.3-12.2 9.8-.5 1.1-7.8 4.7-9.7 4.7-1.9 0-1.9-.9-.1-2.4 7.2-5.6 31.3-24 36.9-28.2 6.9-5 9.6-6.1 10-3.9zM620.6 450c2.4 12.8 2.4 15 .2 15-.9 0-2.1-4.1-3.6-12.8-2.7-15.1-2.7-15.4-.5-15 1.3.2 2.2 3.1 3.9 12.8zM261 454.1c0 .6-.8 2.3-1.9 3.7-3.6 5.2-11.1 20.9-12.6 26.7-1.4 5.6-1.4 6 1 13.2 5.1 15 12.9 28.5 32.5 55.8 8.3 11.5 20.7 29.5 27.6 39.9 14.4 21.8 18.4 26.7 26.5 33.1 14.3 11.3 30.5 14.8 48.4 10.6 12.9-3 16.2-3.2 36.6-2.2 28.1 1.5 42.6 2 87.4 3.1 22 .6 57.6 1.5 79 2.1 21.5.6 53.2 1 70.5 1h31.5v14.4h-383l-.2-14.5c-.5-36.2-12.8-57.7-40.8-71.5-10.7-5.3-17.2-7.1-29.1-8-26.9-2-53.5 12.1-66.6 35.1-1.6 3-3.3 5.4-3.7 5.4-1.5 0-10.6-3.3-11.9-4.3-1-.8-1.6-.7-2.3.4-1.4 2.3-1.2 2.6 5.7 5.5 4.9 2 6.4 3.2 6 4.3-3.6 10.9-4.8 17-5.3 27.2l-.6 11.5-15.4-4.7c-18.1-5.5-19.6-6.6-25.3-18.4-6.2-12.8-7.1-17.7-7.7-39l-.4-19 5.7-6.5c3.2-3.6 4.9-5.7 3.8-4.8-1.1 1-2.5 1.8-3.1 1.8-.6 0-3.4 2.1-6.2 4.6l-5.1 4.6V603H92v-42.4l18.6-18.6 18.5-18.7 7.2-1.6c4-.9 13.1-3.3 20.2-5.2 7.2-2 17.2-4.5 22.4-5.5 11.2-2.4 40.2-7 43.9-7 1.5 0 3.3-.4 4.1-.9 1.3-.8 1.3-1.2 0-2.7-2-2.5-17.3-9.4-23.8-10.9-3.1-.6-10.3-2.2-16.1-3.4-5.8-1.2-11.2-2.5-12-2.8-2.5-.8 4.3-5.8 13.4-9.7 4.4-1.9 11.9-5.1 16.6-7.1 11.8-5.1 14.3-5.9 32.5-9.8 17.1-3.7 23.5-4.4 23.5-2.6zm32.1 11.2c13.1 5.6 20.9 8.4 23.8 8.5 2.4.1 9 1.6 14.9 3.3 18.5 5.4 34.8 7.6 71.2 9.9 17.4 1 36.7 2.6 44.6 3.6l4.1.5 2.6 8.7c3 10 5.3 21.4 6.6 32.2 1.2 10.9 1.3 51.5.1 65.2-.9 10.4-4.4 31.5-5.3 32.4-.2.2-8.6-.1-18.6-.6-31.9-1.8-41.3-1.5-51.6 1.4-14.7 4.2-26.2 3.3-39.2-3-11.3-5.4-17.5-12.2-36-39.9-8.9-13.2-21.6-31.4-28.2-40.5-17-23.3-28.9-45-30.7-56-.8-5 5.6-21.1 13.2-33.2 2.4-3.8 2.5-3.8 5.7-2.4 1.7.8 12 5.2 22.8 9.9zm-85.1-3.8c0 1.1-5.7 3-33.1 10.9-27 7.7-41.9 10.8-41.9 8.8 0-.8 26.9-8.6 56-16.2 13.7-3.6 19-4.6 19-3.5zm498.3 4.3 5.6 2.8-3.2 5.2c-1.7 2.9-3.6 5.2-4.2 5.2-.5 0-3.1-1.4-5.6-3.2l-4.7-3.2 3-4.8c1.6-2.6 3.1-4.8 3.2-4.8.2 0 2.8 1.3 5.9 2.8zm-63.2 7.9c.7.8 2.9 13.5 2.9 16.9 0 1.5-.9 1.6-7.2 1.1-12.7-1.1-25.3-2.8-26-3.5-.3-.4-1.1-3.1-1.6-6.1-1.4-7.9.3-9.1 14.3-10.3 4.3-.4 16.7 1 17.6 1.9zm87.8 4.2c6.7 2.8 13.9 5.6 16 6.1 13.7 3.4 12.7 2.8 21.5 14 4.4 5.7 9.9 11.6 12.1 13.1 2.2 1.5 8.7 4.3 14.5 6.3 5.8 2 11.2 4.2 12.1 4.9.9.7 4.9 3.8 8.8 7 4 3.2 12.9 10 19.9 15 25.4 18.1 38.9 28.5 46.6 36l7.9 7.7-.6 11.7c-.7 12.5-2.6 20.8-7.9 34.5-2.3 6.1-4.4 9.4-8.8 14.1l-5.7 6.1-7.9.7c-4.4.4-11.9.8-16.9.8l-9 .1v-17.3c-.1-16.3-.9-22.8-4.1-31.2-.4-1 .3-1.8 2.2-2.5 8.3-3 10.2-4.2 9.6-6.2-.3-1.3-1-1.7-2.1-1.2-3 1.3-12.4 4.4-12.6 4.2-11-17.5-19.3-25.7-32.7-32.2-13.2-6.5-20-8.1-33.3-8-8.9.1-12.6.7-19.5 2.9-8.3 2.6-16.9 6.8-22 10.7-6.4 4.9-16.5 15.9-20.1 21.8-5 8.5-9.8 22.4-10.7 31.4l-.7 7.1-9.7.3c-5.4.1-9.8.1-9.8 0 0-.2.9-2.7 2-5.7 2.5-6.6 5.5-25.6 7.1-45.6 1.6-20.5 0-53.8-3.2-65.8-.5-2-3.1-6.3-5.6-9.4l-4.6-5.6 11.9.7c6.6.3 21.2 1.4 32.7 2.3 22.8 1.8 24 1.6 21.4-3.3-1.5-2.9-13.5-15.2-18.9-19.4l-2.7-2.1 3.7-5c2.3-3.1 4.3-4.8 5.2-4.5.8.2 7.1 2.7 13.9 5.5zm-579.8 9.5c10.1 1.4 24.7 3.2 32.4 4.1 7.7 1 15.4 2.3 17 3 3 1.3 2.9 1.3-2.5 1.4-3 .1-13.8-.6-24-1.3-10.2-.8-24.9-1.8-32.8-2.2l-14.3-.7-1.4-2.8c-.8-1.5-1.5-3-1.5-3.4 0-1.1 9.3-.4 27.1 1.9zm639.6 7.6c29.6 8.5 50.7 17.4 74.3 31.5 3 1.8 11.5 6.8 18.9 11.1 13.6 7.9 15.8 10.3 6 6.3-3-1.2-10.6-3.9-16.9-6.1-6.3-2.2-14-4.9-17-6-3-1-19.1-6.1-35.7-11.3-16.6-5.1-32.1-10.4-34.4-11.7-4.6-2.6-18.9-19.8-16.5-19.8.3 0 9.9 2.7 21.3 6zM483 493c18.7 1.2 43.4 2.8 53 3.5 3.6.2 11.2.7 17 1 12.6.7 21.3 1.2 42.5 2.5 11.6.8 16.6 1.5 18.4 2.7 2.2 1.4 5 1.5 22.1 1l19.6-.6 5 5.7c2.8 3.1 5.9 7 6.9 8.5 4.1 6.4 5.8 51.5 3 79.9-2.5 24.2-3.9 30.2-8.3 35l-2.6 2.8h-17c-9.4 0-26.5-.5-38.1-1-11.5-.5-34.3-1.2-50.5-1.5-16.2-.3-33.3-.7-38-1-4.7-.3-18.6-.8-31-1.1-12.4-.3-22.6-.7-22.8-.9-.1-.1.2-2.3.8-4.9 3.4-15.2 4.4-27.7 4.4-56.1.1-25.7-.2-30.8-2.3-44.5-2.1-13.6-4-22.6-6.6-30.8-.8-2.3-.6-2.3 3.6-1.8 2.4.3 11.8 1 20.9 1.6zm-324.7 16.4c.4 1.5-2.4 2.3-11.3 3.6-4.7.7-10 1.5-11.7 1.7-3.1.5-3.3.3-3.3-2.4 0-1.6.3-3.3.7-3.7 1-1 25.3-.3 25.6.8zM857 538.3c18.4 6.4 35.7 12.5 38.3 13.7l4.8 2.2-4.7 5.1c-2.6 2.9-5.2 5.8-5.8 6.4-.9 1-2.7.8-8.6-.8-4.1-1.2-8.4-2.8-9.5-3.6-1.9-1.5-1.9-1.5.5-.8 1.4.4 5 .9 8 1.2 5.3.5 5.6.3 8.9-3.1 1.9-2 3.3-3.8 3-4-.6-.6-24.9-9.3-28.2-10.1-3.2-.9-3.3-.5-.7 6.3 2.3 6.1 2.4 7.2.7 7.2-.7 0-3.1-3.7-5.2-8.3l-4-8.2-13.5-5.1c-14.4-5.3-19.4-7.7-20.6-9.6-.9-1.5-2.8-2.1 36.6 11.5zm57.4 18.9c1.6 2.5 10.4 23.6 11.7 28 .8 2.9.1 4.1-1.8 3-1-.7-14.3-30.8-14.3-32.4 0-1.7 3-.7 4.4 1.4zm-26.9 16.4c4.7 1.9 31.6 17.1 33.2 18.7.7.7 2.8 7.5 4.8 15.2 3.2 12.5 3.5 14.4 2.4 18-1.9 6.5-4.5 9.5-8.4 9.5-4 0-4.7-.6-8.8-8.5l-3.2-6-6.8-1.1c-3.7-.6-7-1.3-7.3-1.7-.3-.3-.1-3.6.4-7.4.6-3.7 1.3-10.3 1.6-14.7l.6-7.8-7.7-7.9c-7.7-7.9-7.9-9.3-.8-6.3zm-648.7 17.9c.8.8-5.7 29.5-7.1 31.2-1.6 2.1-4.5-.4-5.7-4.8-1.3-4.7-5-23.8-5-25.6 0-.6 1.5-1.4 3.3-1.6 3.1-.4 13.9.2 14.5.8zm533.2 1.4c0 3.5-5 28.5-5.9 29.4-.5.5-1.9.7-3.2.5-2.5-.3-2.4.1-5.9-17.3-3.1-15.5-3.5-14.5 6.5-14.5 7.6 0 8.5.2 8.5 1.9zm-556 3.2c0 1-.4 1.9-.9 1.9-.6 0-4 2.1-7.6 4.6-6.4 4.3-10.1 5.2-8.9 2 1.1-2.9 14.9-12 16.6-11 .4.3.8 1.4.8 2.5zm37.5 1.4c4.5 2.6 9.2 7.2 8.2 8.1-1 1.1-18.6-8-18.6-9.7-.2-3.4 2.6-3 10.4 1.6zm496.3-1.8c.2 1.5-.7 2.4-3.9 3.9-2.3 1-5.9 3.1-8 4.6-4.2 3-6.9 3.6-6.9 1.5 0-1.9 3.5-5 10.5-9.1 6.4-3.9 7.8-4.1 8.3-.9zm40.9 5.6c2.3 1.8 4.3 3.6 4.3 4 .1 2.3-3.6 1.4-9-2.1-3.3-2.3-6.9-4.4-8-4.7-2.1-.7-2.4-1.4-1.4-3.9.6-1.4 1.2-1.3 5.2.9 2.6 1.4 6.6 4 8.9 5.8zm-576.9 23c3.4 2.7 6.2 5.5 6.2 6.2 0 3.4-2.5 3.4-17-.2-8-2-14.9-3.9-15.3-4.3-.9-.8 2.4-9.5 5.1-13.7l1.4-2.3 6.7 4.7c3.6 2.6 9.4 6.9 12.9 9.6zm55.1-8.6c1.5 3.2 3.1 6.8 3.5 8 .8 2.4.7 2.5-14.9 4.8l-8 1.2-3.2-3-3.3-3.1 4.8-2.8c2.6-1.6 7.4-4.6 10.7-6.7 3.3-2.2 6.3-4 6.7-4 .4-.1 2.1 2.5 3.7 5.6zm471.6 3.8c6.3 4.7 12.1 8.5 12.9 8.5 1.2 0 1.2.6.3 3-.6 1.6-1.7 3-2.3 3-.7 0-7-1.4-14.1-3-7-1.7-13.8-3.3-15-3.6-3-.6-2.9-1.8.9-10.3 2-4.6 3.6-7 4.4-6.7.7.3 6.5 4.3 12.9 9.1zm61.1-4.3c1.5 2.9 3 6.5 3.5 8 .8 3.1.9 3.1-13.8 5.3l-8.7 1.2-2.9-3-2.8-3.1 2.6-1.3c1.4-.8 6.2-3.9 10.6-6.9 4.4-2.9 8.2-5.4 8.4-5.4.3 0 1.7 2.4 3.1 5.2zm-689.6 17c0 2-2.1.4-6.7-5-2.7-3.1-6.2-7.4-7.7-9.4l-2.8-3.8 2.2-.8c2.1-.8 2.9.1 8.7 8.6 3.4 5.3 6.3 9.9 6.3 10.4zm787-3.8c0 2.5-.4 4.7-.9 5-.4.3-2.6.2-4.7-.2l-4-.7.9-4.3c.8-4.1.9-4.2 4.8-4.2h3.9v4.4zm-654.2 3.4c.2.7-.3 1.2-1 1.2-1.8 0-7.1-5.4-6.1-6.3.7-.8 6.5 3.4 7.1 5.1zm531-1.8c1.4 1.8 1.8 3 1 3-1.4 0-5.8-3.9-5.8-5.2 0-1.8 2.8-.6 4.8 2.2zm-541.1 2.6c1.5 2.4 1.5 2.9.2 5.3-2.6 4.6-10.9 3.3-10.9-1.8 0-5.8 7.5-8.3 10.7-3.5zm532.5-.9c2.2 2 2.3 5.6.2 7.7-2.2 2.3-7.1 2-8.4-.3-3.3-6.3 3-12.1 8.2-7.4zm-494.7 1.4c.4.5.4 4.1 0 8-.6 6-1 6.9-2.7 6.9-1.9 0-2-.4-1.4-5.4.6-4.4.4-5.4-.9-6-.9-.3-2.1-.3-2.7 0-1.3.8-10.2-.6-9.3-1.4.3-.4 3.9-1.2 7.8-1.8 4-.6 7.5-1.2 7.9-1.3.4 0 1 .4 1.3 1zm-79.5.9c1.3.9 1.3 1.2-.2 2.1-1.3.7-1.8 2.3-1.8 6 0 3.5-.4 5.1-1.5 5.6-2.3.8-2.5.3-3.2-7.6l-.6-7.1h2.9c1.6 0 3.6.5 4.4 1zm536.4 1c.7.7.3 1-1.1 1-1.2 0-2.9.7-3.8 1.6-2 2-1.4 5.6 2.2 13.2 2.3 4.9 2.5 8.2.5 8.2-2.5 0-8.2-15.4-8.2-22.3v-4l4.7.7c2.6.3 5.2 1.1 5.7 1.6zm76.4 5.2c-.3 6.5-.5 7.3-2.3 7.3-1.7 0-2-.7-2-5.5v-5.5l-6.2-.3c-3.5-.2-6.3-.7-6.3-1.2 0-1.1 3.1-1.7 10.8-1.9l6.3-.1-.3 7.2zm99.7.3c17.8 3.2 28.8 6.4 26 7.6-1.1.4-5.9.8-10.6.8-4.8.1-13.1.5-18.5 1-17.5 1.7-24.4 2.1-24.4 1.5 0-.3.9-1.3 1.9-2.2 1.1-1 3.2-4.1 4.6-6.9 2.2-4.4 3.1-5.2 4.9-4.8 1.1.3 8.4 1.6 16.1 3zm-657 7.1c7.5 5.2 16.3 9.7 17.5 8.9.6-.4 1 .1 1 .9 0 1.3-12.8 13.6-14.9 14.4-.5.2-4.4-5.7-8.6-13l-7.7-13.2 2.2-1.8c2.5-2 2.2-2.1 10.5 3.8zm-26.5-3.1c.6.8.9 2.3.6 3.3-.6 1.6-12.2 23.8-13.2 25.1-.5.5-5.1-2.6-10.2-6.8l-4.2-3.5 4.7-4.9c5.2-5.2 17.9-14.7 19.9-14.7.6 0 1.7.7 2.4 1.5zm533.4.1c.9.8 1.6 2 1.6 2.5 0 1.1-14.1 25.9-14.7 25.9-.9 0-12.3-9.1-12.3-9.8 0-1.9 20.6-20.2 22.7-20.2.6 0 1.9.7 2.7 1.6zm29.2 4.4c7.9 4.8 10.7 6 14.2 6 2.3 0 4.2.3 4.2.6 0 2.9-16.6 18.2-18.1 16.7-.4-.4-3.9-6.6-7.8-13.7-5.3-9.8-6.8-13.3-5.9-14.3 1.7-2.1 2.8-1.7 13.4 4.7zm-552.8 16.3c.2 13.8.1 14.8-1.5 14.5-1.6-.3-1.8-1.9-2.1-15.1-.2-13.8-.1-14.8 1.5-14.5 1.6.3 1.8 1.9 2.1 15.1zm533 0c.1 8.1.1 14.7-.2 14.7-.2 0-1.1-.3-2-.6-1.4-.5-1.6-2.8-1.6-15.1 0-13.2.1-14.4 1.8-14.1 1.5.3 1.7 2 2 15.1zM197 654.7c0 .5-1.2 1.6-2.5 2.6-2.3 1.7-2.5 1.7-3.4-.2-.8-1.4-.7-2.1.2-2.4 1.9-.8 5.7-.8 5.7 0z"/><path d="M291.5 500.4c-1.5 1.1-3.5 1.3-7.5.9-7-.7-11 1.9-11 7.2 0 4.7 2.9 6.5 10.2 6.5 4.4 0 6 .4 7 1.8 2.2 3.1 5.3 4.2 12.6 4.4 5.6.1 7.6-.3 10.4-2 2.6-1.6 5.1-2.2 9.6-2.2 5 0 6.3-.3 7.2-1.9 2.6-5-.7-9.5-8.1-11-2.4-.5-6.9-1.6-10-2.4-9.3-2.5-18.1-3.1-20.4-1.3zm20.3 7c10.4 1.2 14.6 2.6 12.9 4.2-.3.3-8.6.1-18.4-.5-9.8-.7-20-1.3-22.8-1.4-3.8-.2-5.1-.6-5.3-2-.3-1.5.7-1.7 11-1.7 6.2.1 16.4.7 22.6 1.4zM490.1 513.4c-.9 1.1-3 1.6-6.6 1.6-9.3 0-13.5 2.6-13.5 8.3 0 3.6 2.1 4.8 9.7 5.7 5.8.7 7.1 1.3 9.3 3.9 2.4 2.9 2.9 3.1 9.4 3.1 5.8 0 7.4-.4 10.2-2.5 2.6-2 4.4-2.5 9.1-2.5 6.7 0 8.3-1.1 8.3-5.5 0-4.1-2.7-6.5-8.5-7.6-2.5-.5-5.9-1.9-7.6-3.1-4-3-17.7-4-19.8-1.4zm25.9 8.4c3.3.5 4.6 1.2 4.8 2.6.4 1.8-.1 1.9-6.4 1.3-3.8-.4-14-.9-22.7-1.3s-16-1.1-16.3-1.6c-1.7-2.7 1.2-3.1 18.5-2.4 9.7.4 19.6 1.1 22.1 1.4zM596.2 609.2l.3 5.3 5.3.3c4.2.2 5.2 0 5.2-1.2s-1.1-1.6-4-1.6h-4v-4c0-2.9-.4-4-1.6-4-1.2 0-1.4 1-1.2 5.2zM610 609.5v5.5h6c4.7 0 6-.3 6-1.5 0-1.1-1.2-1.5-4.5-1.5-4.2 0-4.5-.2-4.5-2.6 0-2.5.2-2.6 4-2.1 3.5.4 4 .2 4-1.4 0-1.6-.8-1.9-5.5-1.9H610v5.5zM626 609c-2.3 4.9-2.2 7.6.2 5.2 1.5-1.5 5.3-1.5 7.8 0 3.1 2 3.3.3.6-5.1-3.4-6.7-5.5-6.7-8.6-.1zm4.9 1.9c-1.5.5-2.2-.6-1.4-1.9.6-.9 1-.9 1.6.1.5.8.4 1.5-.2 1.8zM639.8 605.7c-.7 2.6.3 9.3 1.3 9.3.5 0 .9-.9.9-2 0-1.6.7-2 3-2 1.7 0 3-.5 3-1 0-.6-1.1-1-2.5-1-1.6 0-2.5-.6-2.5-1.5 0-1.1 1.1-1.5 4-1.5 2.2 0 4-.5 4-1 0-.6-2.4-1-5.4-1-4.3 0-5.5.4-5.8 1.7zM79 695.5c-.7.8-1 2.2-.6 3 .5 1.3 4.6 1.5 29.5 1.5 27.2 0 29.1-.1 30-1.8 2.1-3.9 0-4.2-29.5-4.2-23.7 0-28.4.2-29.4 1.5zM301.1 695.4c-2.4 2.9-.2 4.6 5.9 4.6 6 0 7.6-1.2 6.4-4.5-.8-2-10.7-2.1-12.3-.1zM333.2 694.9c-.8.4-1.2 1.7-1 2.7.3 1.7 1.3 1.9 10.8 1.9h10.5V697c0-2.5-.1-2.5-9.5-2.8-5.2-.1-10.1.2-10.8.7zM372 695.5c-.7.8-1 2.2-.6 3 .5 1.3 3.2 1.5 19.3 1.3l18.8-.3v-5l-18.1-.3c-15.2-.2-18.3 0-19.4 1.3zM429 695.5c-.7.8-1 2.2-.6 3 .5 1.3 4 1.5 26.8 1.3l26.3-.3v-5l-25.6-.3c-21.8-.2-25.8 0-26.9 1.3zM500 695.5c-2.4 2.9.5 4.5 8.4 4.5 8.2 0 10.7-1 9-3.7-1.5-2.5-15.4-3.2-17.4-.8zM536 695.5c-.7.8-1 2.2-.6 3 .5 1.3 7.2 1.5 56.8 1.3l56.3-.3v-5l-55.6-.3c-48.4-.2-55.8 0-56.9 1.3zM836 695.5c-.7.8-1 2.2-.6 3 .8 2.2 22.8 2.2 24.6 0 1-1.2 1-1.8 0-3-1.8-2.2-22.2-2.2-24 0zM878.7 694.7c-.4.3-.7 1.7-.7 3v2.3h31c26.8 0 31.1-.2 31.6-1.5.4-.8.1-2.2-.6-3-1.1-1.3-5.9-1.5-31-1.5-16.3 0-30 .3-30.3.7zM91 715.5c-.6.8-1 2.2-.8 3.2.3 1.5 1.3 1.8 6.2 1.8 6.6 0 9.2-1.9 6.7-4.9-1.7-2.1-10.4-2.2-12.1-.1zM121.2 715.2c-1.4 1.4-1.6 4.4-.3 5.2.5.3 6.3.8 13 1.1 13.9.6 16.4-.1 15.9-4.3l-.3-2.7-13.5-.3c-9.7-.2-13.9.1-14.8 1zM168.4 715.4c-1.1 2.8.1 5.1 2.5 5.1 3.2 0 4.9-2.8 3.2-4.9-1.7-2-5-2.1-5.7-.2zM191.6 715.6c-.9.8-1.6 1.9-1.6 2.3 0 3 2.5 3.1 123.1 3.1 108.9 0 120.8-.2 122-1.6.9-1.1 1-2 .2-3.2-.9-1.6-10.3-1.7-121.6-2-108.6-.2-120.7-.1-122.1 1.4zM458.9 715.6c-.9 1.1-1 2-.2 3.2.9 1.5 5 1.7 44.4 1.7 41 0 43.4-.1 43.7-1.8.9-4.7.6-4.7-44.3-4.7-37.3 0-42.4.2-43.6 1.6zM569 715.5c-.6.8-1 2.2-.8 3.2.3 1.7 2.3 1.8 24.6 2.3 13.4.3 25.1.2 26.1-.2 2.6-.9 3.3-3.5 1.5-5.3-2.2-2.2-49.5-2.3-51.4 0zM648 715.5c-.6.8-1 2.2-.8 3.2.3 1.7 2.8 1.8 45.2 1.8 40.8 0 45-.2 45.9-1.7.8-1.2.7-2.1-.2-3.2-1.2-1.4-6.4-1.6-45.1-1.6-37 0-43.9.2-45 1.5zM758.2 714.9c-.8.4-1.2 1.9-1 3.2.2 1.9.9 2.4 3.3 2.4s3.1-.5 3.3-2.4c.4-2.3-1.1-4.1-3.3-4.1-.5 0-1.6.4-2.3.9zM783 715.5c-2.5 3-.8 5 5 5.6 6.5.7 31.8.2 33.1-.7 1.3-.8 1.1-3.8-.3-5.2-1.9-1.9-36.2-1.7-37.8.3zM839.2 715.2c-2.6 2.6.1 6.5 3.8 5.3 1.6-.5 2-1.4 1.8-3.3-.3-3-3.5-4.1-5.6-2zM862.1 715.8c-.7 1.4-.7 2.4.2 3.5 1 1.3 4.1 1.6 17.4 1.9 14.4.3 16.4.1 18-1.5 1.4-1.3 1.5-2.1.7-3.5-1-1.5-3.3-1.7-18.2-2-15.9-.2-17.2-.1-18.1 1.6zM915.2 715.2c-3.6 3.6.6 6.5 8.4 5.8 6.2-.5 8-2.4 5.4-5.5-1.5-1.8-12.1-2-13.8-.3z"/></svg>